<svg xmlns="http://www.w3.org/2000/svg" width="17.038" height="17" viewBox="0 0 17.038 17"><defs><style>.a{fill:#ce2029;}</style></defs><g transform="translate(0 -0.394)"><g transform="translate(0 0.394)"><g transform="translate(0 0)"><path class="a" d="M16.656,13.84l-2.631-2.632a1.372,1.372,0,0,0-1.934.036L10.765,12.57l-.262-.146a13.192,13.192,0,0,1-3.189-2.306A13.266,13.266,0,0,1,5,6.924c-.049-.089-.1-.174-.143-.256l.89-.888.437-.438a1.371,1.371,0,0,0,.035-1.935L3.592.775A1.371,1.371,0,0,0,1.658.812l-.742.746.02.02A4.288,4.288,0,0,0,.325,2.656,4.469,4.469,0,0,0,.053,3.749c-.347,2.88.969,5.513,4.541,9.085,4.938,4.938,8.917,4.565,9.089,4.546a4.446,4.446,0,0,0,1.1-.275,4.274,4.274,0,0,0,1.074-.608l.016.014.751-.736A1.373,1.373,0,0,0,16.656,13.84Z" transform="translate(0 -0.394)"/></g></g></g></svg>