<svg xmlns="http://www.w3.org/2000/svg" width="50" height="37.083" viewBox="0 0 50 37.083"><g transform="translate(0 -66.133)"><g transform="translate(0 66.133)"><path d="M47.5,78.592H39.255V68.634a2.5,2.5,0,0,0-2.5-2.5H2.5a2.5,2.5,0,0,0-2.5,2.5V88.256a2.5,2.5,0,0,0,2.5,2.5h8.244v9.958a2.5,2.5,0,0,0,2.5,2.5H47.5a2.5,2.5,0,0,0,2.5-2.5V81.093A2.5,2.5,0,0,0,47.5,78.592ZM2.5,88.765a.51.51,0,0,1-.509-.509V68.634a.51.51,0,0,1,.509-.509H36.754a.51.51,0,0,1,.509.509V88.256a.51.51,0,0,1-.509.509H2.5Zm45.507,11.95a.51.51,0,0,1-.509.509H13.246a.51.51,0,0,1-.509-.509V99.445H48.008v1.271Zm0-3.263H12.737V94.415H48.008v3.037Zm0-5.029H12.737V90.757H36.754a2.5,2.5,0,0,0,2.5-2.5V80.584H47.5a.51.51,0,0,1,.509.509Z" transform="translate(0 -66.133)"/></g><g transform="translate(22.518 70.133)"><path d="M239.582,107.1a3.616,3.616,0,0,0-2.686,1.194,3.625,3.625,0,1,0,0,4.863,3.624,3.624,0,1,0,2.686-6.057Zm-5.372,5.258a1.633,1.633,0,1,1,1.633-1.633A1.635,1.635,0,0,1,234.21,112.355Zm5.372,0a1.633,1.633,0,1,1,1.633-1.633A1.635,1.635,0,0,1,239.582,112.355Z" transform="translate(-230.585 -107.097)"/></g><g transform="translate(4.115 82.821)"><path d="M47.938,237.022H43.133a1,1,0,0,0,0,1.992h4.805a1,1,0,1,0,0-1.992Z" transform="translate(-42.137 -237.022)"/></g><g transform="translate(12.229 82.821)"><path d="M131.027,237.022h-4.805a1,1,0,0,0,0,1.992h4.805a1,1,0,1,0,0-1.992Z" transform="translate(-125.226 -237.022)"/></g><g transform="translate(20.343 82.821)"><path d="M214.115,237.022H209.31a1,1,0,1,0,0,1.992h4.805a1,1,0,0,0,0-1.992Z" transform="translate(-208.314 -237.022)"/></g><g transform="translate(28.457 82.821)"><path d="M297.2,237.022H292.4a1,1,0,0,0,0,1.992H297.2a1,1,0,0,0,0-1.992Z" transform="translate(-291.402 -237.022)"/></g><g transform="translate(4.344 70.477)"><path d="M48.589,110.611H46.474a2,2,0,0,0-2,2v2.115a2,2,0,0,0,2,2h2.115a2,2,0,0,0,2-2v-2.115A2,2,0,0,0,48.589,110.611Zm0,4.115h0l-2.119,0,0-2.119,2.119,0Z" transform="translate(-44.478 -110.611)"/></g></g></svg>