<svg xmlns="http://www.w3.org/2000/svg" width="11.578" height="14" viewBox="0 0 11.578 14"><defs><style>.a{fill:#fff;}</style></defs><path class="a" d="M12.61,11.922v1.648q0,.523-.3.523a.5.5,0,0,1-.352-.172V11.571A.5.5,0,0,1,12.3,11.4q.3,0,.3.523Zm2.641.008v.359h-.7V11.93q0-.531.352-.531t.352.531ZM7.7,10.227h.836V9.493H6.1v.734h.82v4.445H7.7Zm2.25,4.445h.7V10.813h-.7v2.953q-.234.328-.445.328-.141,0-.164-.164a2.172,2.172,0,0,1-.008-.273V10.813h-.7v3.055a1.932,1.932,0,0,0,.062.57.421.421,0,0,0,.453.289,1.144,1.144,0,0,0,.8-.477v.422ZM13.3,13.516V11.977a2.778,2.778,0,0,0-.07-.773.543.543,0,0,0-.555-.437.941.941,0,0,0-.727.422v-1.7h-.7v5.18h.7V14.3a.969.969,0,0,0,.727.43.541.541,0,0,0,.555-.43A2.872,2.872,0,0,0,13.3,13.516Zm2.641-.078v-.1h-.711a3.868,3.868,0,0,1-.016.477.3.3,0,0,1-.312.281q-.359,0-.359-.539v-.68h1.4v-.8a1.55,1.55,0,0,0-.211-.906,1.068,1.068,0,0,0-1.664,0,1.507,1.507,0,0,0-.219.906v1.352a1.467,1.467,0,0,0,.227.906,1,1,0,0,0,.844.4.967.967,0,0,0,1.008-.836,3.439,3.439,0,0,0,.016-.453ZM11.2,6.305V4.664q0-.539-.336-.539t-.336.539V6.305q0,.547.336.547T11.2,6.305Zm5.617,5.867a13.537,13.537,0,0,1-.2,2.734,1.484,1.484,0,0,1-.453.773,1.367,1.367,0,0,1-.8.359,41.772,41.772,0,0,1-4.336.164,41.772,41.772,0,0,1-4.336-.164,1.385,1.385,0,0,1-.8-.359,1.428,1.428,0,0,1-.449-.773,13.258,13.258,0,0,1-.2-2.734,13.537,13.537,0,0,1,.2-2.734,1.484,1.484,0,0,1,.453-.773A1.417,1.417,0,0,1,6.7,8.3q1.43-.156,4.328-.156T15.36,8.3a1.467,1.467,0,0,1,1.25,1.141,13.257,13.257,0,0,1,.2,2.734ZM9.016,2.2h.8L8.867,5.321V7.438H8.086V5.321A13.23,13.23,0,0,0,7.61,3.664Q7.321,2.86,7.1,2.2H7.93l.555,2.055Zm2.891,2.6V6.172a1.54,1.54,0,0,1-.219.922,1.052,1.052,0,0,1-1.648,0,1.562,1.562,0,0,1-.219-.922V4.805a1.523,1.523,0,0,1,.219-.914,1.052,1.052,0,0,1,1.648,0,1.523,1.523,0,0,1,.219.914Zm2.617-1.266v3.9h-.711v-.43a1.125,1.125,0,0,1-.8.484.434.434,0,0,1-.461-.289,2,2,0,0,1-.062-.586V3.539H13.2V6.407a2.052,2.052,0,0,0,.008.273q.023.172.164.172.211,0,.445-.336V3.539Z" transform="translate(-5.235 -2.203)"/></svg>