<svg xmlns="http://www.w3.org/2000/svg" width="50" height="40.999" viewBox="0 0 50 40.999"><g transform="translate(0 -44.103)"><path d="M182.445,103.006c-3.277.966-5.431,3.456-4.811,5.561s3.78,3.029,7.058,2.063,5.431-3.456,4.811-5.561S185.723,102.04,182.445,103.006Zm1.672,5.673c-2.1.62-4.057.29-4.359-.738s1.158-2.364,3.262-2.985,4.057-.29,4.36.738S186.222,108.058,184.117,108.679Z" transform="translate(-159.413 -52.548)"/><path d="M50,53.8,14.531,44.1,0,53.912,35.658,65.665ZM4.633,53.27,14.9,46.339l30.732,8.4-10.409,8.61Z"/><path d="M.546,177.955v2.17l35.6,11.779,14.287-11.723v-2.666L35.711,189.592Z" transform="translate(-0.49 -119.799)"/><path d="M.546,241.64v2.17l35.6,11.779,14.287-11.723V241.2L35.711,253.276Z" transform="translate(-0.49 -176.985)"/><path d="M.546,305.324v2.17l35.6,11.779L50.435,307.55v-2.666L35.711,316.961Z" transform="translate(-0.49 -234.171)"/></g></svg>