<svg xmlns="http://www.w3.org/2000/svg" width="52.942" height="34" viewBox="0 0 52.942 34"><defs><style>.a{opacity:0.2;}.b{fill:#fff;}</style></defs><g class="a"><path class="b" d="M37.333,8.264a12.119,12.119,0,0,0-12.1,12.24,12.3,12.3,0,0,0,12.311,12.24c.068,0,.17-.009.237-.01a15.5,15.5,0,0,1-9.7,3.411A3.052,3.052,0,0,0,25.03,39.2a2.832,2.832,0,0,0,2.778,3.06A21.547,21.547,0,0,0,49.286,20.5V20.5A12,12,0,0,0,37.333,8.264Z" transform="translate(3.656 -8.264)"/><path class="b" d="M12.32,8.264A12.127,12.127,0,0,0,.214,20.5a12.3,12.3,0,0,0,12.307,12.24c.068,0,.167-.009.235-.01a15.508,15.508,0,0,1-9.7,3.411A3.053,3.053,0,0,0,0,39.2a2.845,2.845,0,0,0,2.8,3.06,21.561,21.561,0,0,0,21.5-21.76V20.5A12.01,12.01,0,0,0,12.32,8.264Z" transform="translate(0 -8.264)"/></g></svg>