<svg xmlns="http://www.w3.org/2000/svg" width="50" height="50" viewBox="0 0 50 50"><g transform="translate(5.859 20.41)"><path d="M66.836,216.813h-.977v-3.906h.977a.978.978,0,0,1,.977.977.977.977,0,1,0,1.953,0,2.933,2.933,0,0,0-2.93-2.93h-.977v-.977a.977.977,0,1,0-1.953,0v.977H62.93a2.933,2.933,0,0,0-2.93,2.93v1.953a2.933,2.933,0,0,0,2.93,2.93h.977v3.906H62.93a.978.978,0,0,1-.977-.977.977.977,0,0,0-1.953,0,2.933,2.933,0,0,0,2.93,2.93h.977v.977a.977.977,0,1,0,1.953,0v-.977h.977a2.933,2.933,0,0,0,2.93-2.93v-1.953A2.933,2.933,0,0,0,66.836,216.813Zm-2.93,0H62.93a.978.978,0,0,1-.977-.977v-1.953a.978.978,0,0,1,.977-.977h.977Zm3.906,4.883a.978.978,0,0,1-.977.977h-.977v-3.906h.977a.978.978,0,0,1,.977.977Z" transform="translate(-60 -209)"/></g><path d="M47.07,13.965h-.977v-2.93a2.935,2.935,0,0,0-2.08-2.8,2.943,2.943,0,0,0-1.826-1.91V2.93a2.93,2.93,0,1,0-5.859,0V6.32a2.934,2.934,0,0,0-1.953,2.762v4.883H2.93A2.933,2.933,0,0,0,0,16.895V41.211a2.933,2.933,0,0,0,2.93,2.93h33.2l2.157,3.236-.007,1.642a.977.977,0,0,0,.972.981h0a.977.977,0,0,0,.976-.972l.008-1.673,2.142-3.214H47.07A2.933,2.933,0,0,0,50,41.211V16.895A2.933,2.933,0,0,0,47.07,13.965ZM2.93,42.188a.978.978,0,0,1-.977-.977V16.895a.978.978,0,0,1,.977-.977H34.375v6.445H18.555a.977.977,0,1,0,0,1.953h15.82v3.906H18.555a.977.977,0,1,0,0,1.953h15.82v3.906h-15.4a.977.977,0,1,0,0,1.953h15.4v2.518a10.258,10.258,0,0,0,.694,3.635ZM42.188,11.035a.977.977,0,0,1,1.953,0v7.422H42.188ZM38.281,2.93a.977.977,0,0,1,1.953,0V6.152H38.281ZM36.328,9.082a.978.978,0,0,1,.977-.977h3.906a.973.973,0,0,1,.69.287,2.946,2.946,0,0,0-1.5,1.667H36.328Zm0,2.93h3.906v1.953H36.328Zm5.859,26.541a7.873,7.873,0,0,1-1.14,4.071l-.016.024-1.774,2.661-1.774-2.661-.016-.024a7.873,7.873,0,0,1-1.14-4.071v-.564h5.859Zm0-2.518H36.328V15.918h3.906v5.469a2.934,2.934,0,0,0,1.953,2.762Zm0-14.648V20.41h1.953v.977a.977.977,0,0,1-1.953,0Zm5.859,19.824a.978.978,0,0,1-.977.977H43.447a10.257,10.257,0,0,0,.694-3.635v-14.4a2.934,2.934,0,0,0,1.953-2.762V15.918h.977a.978.978,0,0,1,.977.977Z"/></svg>