<svg xmlns="http://www.w3.org/2000/svg" width="15" height="15" viewBox="0 0 15 15"><defs><style>.a{fill:#161616;}</style></defs><path class="a" d="M13.242,2.044V0H8.818A1.754,1.754,0,0,0,7.5.6,1.754,1.754,0,0,0,6.182,0H1.758V2.044H0V15l2.409-2.409H15V2.044ZM7.061,8.433A1.747,1.747,0,0,0,6.182,8.2H2.637V7.318H6.182a.88.88,0,0,1,.879.879Zm-4.424.642H6.182a.88.88,0,0,1,.879.879H2.637ZM12.363,8.2H8.818a1.747,1.747,0,0,0-.879.236V8.2a.88.88,0,0,1,.879-.879h3.545Zm0,.879v.879H7.939a.88.88,0,0,1,.879-.879ZM8.818.879h3.545v5.56H8.818a1.747,1.747,0,0,0-.879.236V1.758A.88.88,0,0,1,8.818.879Zm-2.637,0a.88.88,0,0,1,.879.879V6.675a1.747,1.747,0,0,0-.879-.236H2.637V.879Zm7.939,10.834H2.044L.879,12.878V2.923h.879v7.91H13.242V2.923h.879Zm0,0"/></svg>