<svg xmlns="http://www.w3.org/2000/svg" width="50" height="49.991" viewBox="0 0 50 49.991"><g transform="translate(0 -0.047)"><g transform="translate(25.798 25.031)"><path d="M268.66,263.235a2.234,2.234,0,1,1,2.538-2.213.977.977,0,0,0,1.953,0,4.257,4.257,0,0,0-3.515-4.066v-.1a.977.977,0,1,0-1.953,0v.1a4.257,4.257,0,0,0-3.515,4.066,4.343,4.343,0,0,0,4.491,4.166,2.234,2.234,0,1,1-2.538,2.214.977.977,0,0,0-1.953,0,4.257,4.257,0,0,0,3.515,4.066v.248a.977.977,0,0,0,1.953,0v-.248a4.257,4.257,0,0,0,3.515-4.066A4.343,4.343,0,0,0,268.66,263.235Z" transform="translate(-264.169 -255.881)"/></g><g transform="translate(0 0.047)"><g transform="translate(0 0)"><path d="M43.5,18.81l-5.778-7.224L40.612,5.9a3.025,3.025,0,0,0-.626-3.637,3.025,3.025,0,0,0-3.665-.431,1.135,1.135,0,0,1-1.277-.1,7.58,7.58,0,0,0-9.538,0,1.135,1.135,0,0,1-1.279.1,3.025,3.025,0,0,0-3.665.431A3.025,3.025,0,0,0,19.935,5.9l2.9,5.7-3.365,4.207A.977.977,0,0,0,21,17.032l3.469-4.338h7.172v2.741a.977.977,0,1,0,1.953,0V12.695h1.489V18.45a.977.977,0,1,0,1.953,0v-4.59l4.934,6.169a27.839,27.839,0,0,1,6.077,17.326,10.742,10.742,0,0,1-10.73,10.73H23.255a10.646,10.646,0,0,1-8.772-4.549c3.588-1.894,5.939-3.816,7.311-5.957,1.5-2.339,1.669-4.655,1.728-7.223,0-.008,0-.015,0-.022V22.219a.977.977,0,0,0-.568-.887L12.169,16.371a.976.976,0,0,0-.816,0L.568,21.332A.977.977,0,0,0,0,22.219v8.114c0,.007,0,.015,0,.022.059,2.568.23,4.884,1.728,7.223,1.648,2.571,4.705,4.826,9.623,7.1a.977.977,0,0,0,.818,0c.186-.086.369-.172.55-.258a12.666,12.666,0,0,0,10.535,5.621H37.317A12.7,12.7,0,0,0,50,37.355,29.8,29.8,0,0,0,43.5,18.81Zm-7.54-8.068H24.591L21.675,5.017a1.13,1.13,0,0,1,1.573-1.491,3.1,3.1,0,0,0,3.5-.282,5.617,5.617,0,0,1,7.066.006,3.1,3.1,0,0,0,3.489.276,1.13,1.13,0,0,1,1.573,1.491ZM11.761,42.711C2.142,38.172,2.05,34.53,1.953,30.322V22.845l9.808-4.512,9.808,4.512v7.478C21.473,34.53,21.381,38.172,11.761,42.711Z" transform="translate(0 -0.047)"/></g></g><g transform="translate(7.159 26.985)"><path d="M84.146,276.173a.977.977,0,0,0-1.381,0l-5.473,5.473-2.317-2.317a.977.977,0,0,0-1.381,1.381l3.007,3.007a.977.977,0,0,0,1.381,0l6.163-6.163A.977.977,0,0,0,84.146,276.173Z" transform="translate(-73.308 -275.887)"/></g></g></svg>