<svg xmlns="http://www.w3.org/2000/svg" width="13" height="13" viewBox="0 0 13 13"><defs><style>.a{fill:#fff;}</style></defs><path class="a" d="M6.5,0C4.734,0,4.514.008,3.82.039a4.793,4.793,0,0,0-1.578.3,3.183,3.183,0,0,0-1.152.75,3.171,3.171,0,0,0-.75,1.152,4.779,4.779,0,0,0-.3,1.578C.006,4.514,0,4.734,0,6.5S.008,8.486.039,9.18a4.8,4.8,0,0,0,.3,1.578,3.188,3.188,0,0,0,.75,1.152,3.179,3.179,0,0,0,1.152.75,4.8,4.8,0,0,0,1.578.3c.693.032.914.039,2.68.039s1.986-.008,2.68-.039a4.81,4.81,0,0,0,1.578-.3,3.322,3.322,0,0,0,1.9-1.9,4.8,4.8,0,0,0,.3-1.578c.033-.693.039-.914.039-2.68s-.008-1.986-.039-2.68a4.807,4.807,0,0,0-.3-1.578,3.19,3.19,0,0,0-.75-1.152,3.167,3.167,0,0,0-1.152-.75A4.782,4.782,0,0,0,9.18.039C8.486.006,8.266,0,6.5,0Zm0,1.17c1.735,0,1.942.009,2.627.038a3.581,3.581,0,0,1,1.206.225,2.139,2.139,0,0,1,1.234,1.233,3.589,3.589,0,0,1,.224,1.206c.031.686.038.892.038,2.627s-.008,1.942-.04,2.627a3.658,3.658,0,0,1-.228,1.206,2.064,2.064,0,0,1-.487.749,2.028,2.028,0,0,1-.747.485,3.615,3.615,0,0,1-1.211.224c-.69.031-.893.038-2.632.038s-1.942-.008-2.632-.04a3.686,3.686,0,0,1-1.211-.228,2.013,2.013,0,0,1-.747-.487,1.974,1.974,0,0,1-.487-.747,3.689,3.689,0,0,1-.227-1.211c-.024-.682-.033-.893-.033-2.624s.009-1.942.033-2.633a3.685,3.685,0,0,1,.227-1.21A1.927,1.927,0,0,1,1.894,1.9a1.923,1.923,0,0,1,.747-.486,3.6,3.6,0,0,1,1.2-.228c.691-.024.894-.032,2.632-.032L6.5,1.17Zm0,1.992A3.338,3.338,0,1,0,9.838,6.5,3.338,3.338,0,0,0,6.5,3.162Zm0,5.5A2.167,2.167,0,1,1,8.667,6.5,2.166,2.166,0,0,1,6.5,8.667Zm4.25-5.636a.78.78,0,1,1-.78-.779A.781.781,0,0,1,10.75,3.031Z"/></svg>