<svg xmlns="http://www.w3.org/2000/svg" width="12.031" height="15" viewBox="0 0 12.031 15"><g transform="translate(-47.2)"><g transform="translate(47.2)"><path d="M53.213,0A6.021,6.021,0,0,0,47.2,6.013a5.918,5.918,0,0,0,.107,1.129c0,.022.016.088.041.2a5.921,5.921,0,0,0,.4,1.186,16.855,16.855,0,0,0,5.2,6.377.426.426,0,0,0,.535,0,16.887,16.887,0,0,0,5.2-6.377,5.855,5.855,0,0,0,.4-1.186c.025-.113.038-.179.041-.2a6.184,6.184,0,0,0,.107-1.129A6.03,6.03,0,0,0,53.213,0Zm5.069,6.994c0,.006,0,.013,0,.019s-.013.063-.028.135v.006A4.992,4.992,0,0,1,57.9,8.179s0,.009-.006.013a15.73,15.73,0,0,1-4.682,5.836A15.73,15.73,0,0,1,48.53,8.192s0-.009-.006-.013a5.325,5.325,0,0,1-.349-1.025V7.148c-.019-.072-.025-.119-.028-.135s0-.013,0-.022a5.163,5.163,0,1,1,10.138,0Z" transform="translate(-47.2)"/><path d="M120.818,71.9a3.818,3.818,0,1,0,3.818,3.818A3.824,3.824,0,0,0,120.818,71.9Zm0,6.786a2.969,2.969,0,1,1,2.969-2.969A2.972,2.972,0,0,1,120.818,78.686Z" transform="translate(-114.805 -69.639)"/></g></g></svg>