<svg xmlns="http://www.w3.org/2000/svg" width="353.536" height="40" viewBox="0 0 353.536 40"><defs><style>.a{fill:#fff;}.b{fill:#ffbc27;}</style></defs><g transform="translate(-1200.295 521.185)"><g transform="translate(1200.295 -521.185)"><path class="a" d="M111.58,82.041H97.058c-.745,0-.869-.124-.869-.872q0-8.4-.007-16.794a1.094,1.094,0,0,1,.442-.933q7.139-5.877,14.263-11.771c.656-.543.722-.543,1.372-.006q7.144,5.9,14.293,11.8a1.019,1.019,0,0,1,.417.863q-.014,8.458-.007,16.916c0,.654-.15.8-.819.8Zm-5.744-10.815v.006c-.149,0-.3,0-.446,0-.605.008-.776.2-.724.789a5.081,5.081,0,0,0,1.36,3.094,7.689,7.689,0,0,0,9.9.872,5.358,5.358,0,0,0,2.329-4.208c.019-.472-.176-.67-.649-.679-.324-.006-.649,0-.973.011-.556.014-.692.129-.737.683a2.97,2.97,0,0,1-1.109,2.088,5.437,5.437,0,0,1-6.29.281,3.061,3.061,0,0,1-1.442-2.11c-.121-.813-.141-.835-.973-.828Zm3.334-7.648a2.543,2.543,0,1,0-2.54,2.537A2.576,2.576,0,0,0,109.17,63.578Zm7.025,2.536a2.543,2.543,0,1,0-2.538-2.539A2.576,2.576,0,0,0,116.195,66.114Z" transform="translate(-86.814 -42.693)"/><path class="a" d="M104.021,41.811c-1.28,1.067-2.535,2.114-3.79,3.162q-8.684,7.253-17.367,14.507a.97.97,0,0,1-1.574-.129c-.555-.646-1.1-1.3-1.639-1.96a.978.978,0,0,1,.134-1.6q2.856-2.4,5.725-4.785,8.839-7.384,17.677-14.769c.659-.551.986-.563,1.66,0q3.6,3,7.19,6c.111.093.226.18.39.309.008-.189.019-.316.019-.444,0-.96,0-1.92,0-2.88a.92.92,0,0,1,.946-.991q1.46-.02,2.92,0a.922.922,0,0,1,.937,1c0,2.326.007,4.651-.006,6.977a.751.751,0,0,0,.307.647q5.206,4.331,10.4,8.676a1.008,1.008,0,0,1,.173,1.663q-.812.985-1.638,1.959a.969.969,0,0,1-1.549.125q-10.131-8.458-20.259-16.919C104.47,42.182,104.262,42.011,104.021,41.811Z" transform="translate(-79.295 -35.815)"/></g><g transform="translate(1257.538 -508.923)"><path class="a" d="M196.456,78.992h-4.131V70.147q0-3.278-2.438-3.278a2.772,2.772,0,0,0-2.505,1.178,7.194,7.194,0,0,0-.772,3.819v7.124h-4.131V57.917h4.131V62.21q0,.5-.095,2.357l-.095,1.219h.217a4.786,4.786,0,0,1,4.388-2.221A5.366,5.366,0,0,1,195.075,65a5.705,5.705,0,0,1,1.381,4.118Z" transform="translate(-182.479 -57.917)"/><path class="a" d="M227.212,75.926a8.138,8.138,0,0,1-1.951,5.783A7.07,7.07,0,0,1,219.83,83.8a7.6,7.6,0,0,1-3.846-.954,6.362,6.362,0,0,1-2.56-2.743,9.215,9.215,0,0,1-.894-4.171,8.1,8.1,0,0,1,1.937-5.77,7.115,7.115,0,0,1,5.445-2.058,7.636,7.636,0,0,1,3.846.948,6.331,6.331,0,0,1,2.56,2.722A9.133,9.133,0,0,1,227.212,75.926Zm-10.47,0a6.35,6.35,0,0,0,.738,3.4,2.638,2.638,0,0,0,2.4,1.151,2.6,2.6,0,0,0,2.377-1.144,6.45,6.45,0,0,0,.725-3.406,6.254,6.254,0,0,0-.732-3.372,3.109,3.109,0,0,0-4.781-.007A6.247,6.247,0,0,0,216.742,75.926Z" transform="translate(-195.859 -62.45)"/><path class="a" d="M257.555,83.524h-4.131V74.68a4.455,4.455,0,0,0-.549-2.458,1.929,1.929,0,0,0-1.727-.819,2.5,2.5,0,0,0-2.3,1.164,7.638,7.638,0,0,0-.718,3.833v7.124H244V68.382h3.156l.555,1.937h.23a4.2,4.2,0,0,1,1.761-1.632,5.716,5.716,0,0,1,2.641-.589q3.4,0,4.6,2.221h.366a4.1,4.1,0,0,1,1.795-1.639,5.992,5.992,0,0,1,2.675-.582,5.279,5.279,0,0,1,3.894,1.32A5.8,5.8,0,0,1,267,73.651v9.874h-4.145V74.68a4.455,4.455,0,0,0-.549-2.458,1.929,1.929,0,0,0-1.727-.819,2.576,2.576,0,0,0-2.268,1.083,6.149,6.149,0,0,0-.752,3.44Z" transform="translate(-209.869 -62.45)"/><path class="a" d="M298.058,83.8a7.812,7.812,0,0,1-5.715-2.018,7.639,7.639,0,0,1-2.059-5.716,8.407,8.407,0,0,1,1.9-5.885,6.778,6.778,0,0,1,5.263-2.079,6.669,6.669,0,0,1,5,1.828,6.918,6.918,0,0,1,1.788,5.052v2h-9.765a3.977,3.977,0,0,0,1.042,2.749,3.668,3.668,0,0,0,2.736.989,11.351,11.351,0,0,0,2.587-.284,12.952,12.952,0,0,0,2.546-.908v3.2a9.7,9.7,0,0,1-2.316.806A14.58,14.58,0,0,1,298.058,83.8Zm-.582-12.759a2.618,2.618,0,0,0-2.058.833,3.851,3.851,0,0,0-.854,2.363h5.8a3.446,3.446,0,0,0-.8-2.363A2.706,2.706,0,0,0,297.475,71.037Z" transform="translate(-230.477 -62.45)"/><path class="a" d="M330.16,79.028a4.167,4.167,0,0,1-1.619,3.548A7.994,7.994,0,0,1,323.7,83.8a15.229,15.229,0,0,1-2.817-.223,10.657,10.657,0,0,1-2.181-.657V79.5a14.356,14.356,0,0,0,2.594.908,10.508,10.508,0,0,0,2.539.366q2.248,0,2.249-1.3a1.087,1.087,0,0,0-.3-.792,4.339,4.339,0,0,0-1.03-.691q-.731-.386-1.951-.9a12.231,12.231,0,0,1-2.566-1.354,3.8,3.8,0,0,1-1.192-1.429,4.711,4.711,0,0,1-.373-1.984A3.6,3.6,0,0,1,320.24,69.2a7.62,7.62,0,0,1,4.436-1.1A12.593,12.593,0,0,1,330,69.29l-1.246,2.98q-1.138-.488-2.126-.8a6.684,6.684,0,0,0-2.018-.312q-1.829,0-1.828.989a1.164,1.164,0,0,0,.589.962,16.049,16.049,0,0,0,2.581,1.206,11.978,11.978,0,0,1,2.6,1.341,3.973,3.973,0,0,1,1.219,1.435A4.415,4.415,0,0,1,330.16,79.028Z" transform="translate(-243.118 -62.45)"/></g><path class="b" d="M349.189,78.145a8.952,8.952,0,0,0,2.6-.474v3.075a9.274,9.274,0,0,1-3.792.691,4.645,4.645,0,0,1-3.61-1.252,5.458,5.458,0,0,1-1.131-3.759v-7.3H341.28V67.378L343.555,66l1.192-3.2h2.641v3.223h4.24v3.1h-4.24v7.3a1.613,1.613,0,0,0,.494,1.3A1.951,1.951,0,0,0,349.189,78.145Z" transform="translate(1004.356 -569.015)"/><path class="b" d="M373.044,68.1a6.686,6.686,0,0,1,1.395.121l-.311,3.874a4.731,4.731,0,0,0-1.219-.135,4.379,4.379,0,0,0-3.081,1.016,3.672,3.672,0,0,0-1.1,2.844v7.706h-4.131V68.382h3.129l.609,2.546h.2a5.683,5.683,0,0,1,1.9-2.052A4.694,4.694,0,0,1,373.044,68.1Z" transform="translate(993.977 -571.373)"/><path class="b" d="M394.96,83.5l-.8-2.059h-.108a6.092,6.092,0,0,1-2.147,1.821,6.922,6.922,0,0,1-2.878.508,4.653,4.653,0,0,1-3.433-1.246,4.785,4.785,0,0,1-1.253-3.548,4,4,0,0,1,1.686-3.556,9.778,9.778,0,0,1,5.086-1.267l2.628-.081v-.664a2.06,2.06,0,0,0-2.357-2.3,10.731,10.731,0,0,0-4.267,1.1l-1.368-2.79a12.308,12.308,0,0,1,5.8-1.368,7.223,7.223,0,0,1,4.673,1.327,4.907,4.907,0,0,1,1.625,4.036V83.5Zm-1.219-7.016-1.6.054a5.122,5.122,0,0,0-2.682.65,2.042,2.042,0,0,0-.88,1.815q0,1.747,2,1.747a3.174,3.174,0,0,0,2.3-.826,2.9,2.9,0,0,0,.86-2.194Z" transform="translate(985.184 -571.352)"/><rect class="b" width="4.131" height="15.142" transform="translate(1386.643 -502.991)"/><path class="b" d="M443.284,83.524h-4.131V74.68a4.251,4.251,0,0,0-.583-2.458,2.118,2.118,0,0,0-1.855-.819,2.789,2.789,0,0,0-2.506,1.158,7.181,7.181,0,0,0-.772,3.84v7.124h-4.131V68.382h3.156l.555,1.937h.231a4.367,4.367,0,0,1,1.9-1.659,6.473,6.473,0,0,1,2.756-.562,5.3,5.3,0,0,1,4.009,1.429,5.738,5.738,0,0,1,1.368,4.124Z" transform="translate(965.164 -571.373)"/><rect class="b" width="4.131" height="15.142" transform="translate(1412.063 -502.991)"/><path class="b" d="M489.1,83.524h-4.131V74.68a4.251,4.251,0,0,0-.582-2.458,2.12,2.12,0,0,0-1.856-.819,2.789,2.789,0,0,0-2.506,1.158,7.187,7.187,0,0,0-.772,3.84v7.124h-4.131V68.382h3.156l.555,1.937h.23a4.365,4.365,0,0,1,1.9-1.659,6.472,6.472,0,0,1,2.756-.562,5.3,5.3,0,0,1,4.009,1.429,5.738,5.738,0,0,1,1.368,4.124Z" transform="translate(944.764 -571.373)"/><path class="b" d="M518.343,68.382v2.1l-2.37.61a4.134,4.134,0,0,1,.65,2.276,4.594,4.594,0,0,1-1.7,3.8,7.361,7.361,0,0,1-4.72,1.361l-.745-.041-.61-.068a1.373,1.373,0,0,0-.637,1.083q0,.894,2.276.894h2.574a5.874,5.874,0,0,1,3.8,1.07,3.824,3.824,0,0,1,1.307,3.142,4.659,4.659,0,0,1-2.215,4.118,11.531,11.531,0,0,1-6.359,1.463,8.8,8.8,0,0,1-4.842-1.1,3.5,3.5,0,0,1-1.673-3.095,3.237,3.237,0,0,1,.853-2.289,4.846,4.846,0,0,1,2.505-1.314,2.761,2.761,0,0,1-1.111-.887,2.181,2.181,0,0,1,.027-2.749A5.8,5.8,0,0,1,506.8,77.62a4.066,4.066,0,0,1-1.889-1.653,5.024,5.024,0,0,1-.7-2.682,4.728,4.728,0,0,1,1.612-3.833,6.969,6.969,0,0,1,4.6-1.354,11.808,11.808,0,0,1,1.51.115q.875.116,1.118.169ZM506.654,85.665a1.5,1.5,0,0,0,.819,1.341,4.512,4.512,0,0,0,2.3.487,8.134,8.134,0,0,0,3.481-.609,1.858,1.858,0,0,0,1.26-1.666,1.18,1.18,0,0,0-.745-1.178,6.1,6.1,0,0,0-2.3-.325h-2.14a3.237,3.237,0,0,0-1.9.535A1.649,1.649,0,0,0,506.654,85.665Zm1.5-12.325a3.086,3.086,0,0,0,.561,1.95,2.042,2.042,0,0,0,1.714.718,2,2,0,0,0,1.707-.718,3.168,3.168,0,0,0,.541-1.95q0-2.736-2.248-2.736Q508.158,70.6,508.158,73.339Z" transform="translate(932.318 -571.373)"/><g transform="translate(1405.389 -521.185)"><path class="b" d="M460.229,49.9l-4.53-3.609a5.592,5.592,0,1,0,9.921,3.745Z" transform="translate(-451.41 -40.481)"/><path class="b" d="M470.478,43.86l-2.589-.014-.043-.489-.815-.378-.165.081.66.434-.008.35s.39,4-.457,5.583a2.238,2.238,0,0,1-2.035-.741l1.389-4.658.138-.379-1.39-.893.011.3,1,.778-.59,0-7.128-.361-5.693-4.306-3.77-3.128,12.249-.223Z" transform="translate(-448.988 -35.815)"/></g><g transform="translate(1451.933 -503.303)"><path class="a" d="M532.885,90.566a2.271,2.271,0,0,1,.61-1.72,2.473,2.473,0,0,1,1.774-.582,2.4,2.4,0,0,1,1.741.6A2.633,2.633,0,0,1,537,92.253a2.36,2.36,0,0,1-1.734.616,2.427,2.427,0,0,1-1.761-.6A2.252,2.252,0,0,1,532.885,90.566Z" transform="translate(-532.885 -77.049)"/><path class="a" d="M552.453,83.8q-7.07,0-7.07-7.761a8.277,8.277,0,0,1,1.923-5.9,7.216,7.216,0,0,1,5.513-2.038,10.51,10.51,0,0,1,4.713,1.029l-1.219,3.2q-.975-.393-1.815-.644a5.854,5.854,0,0,0-1.679-.251q-3.225,0-3.224,4.578,0,4.443,3.224,4.443a7.343,7.343,0,0,0,2.207-.318,7.956,7.956,0,0,0,2.032-1v3.535a6.646,6.646,0,0,1-2.025.88A11.391,11.391,0,0,1,552.453,83.8Z" transform="translate(-538.45 -68.071)"/><path class="a" d="M584.623,75.926a8.138,8.138,0,0,1-1.951,5.783,7.071,7.071,0,0,1-5.431,2.085,7.605,7.605,0,0,1-3.847-.954,6.357,6.357,0,0,1-2.56-2.743,9.215,9.215,0,0,1-.894-4.171,8.092,8.092,0,0,1,1.937-5.77,7.114,7.114,0,0,1,5.445-2.058,7.637,7.637,0,0,1,3.847.948,6.326,6.326,0,0,1,2.56,2.722A9.126,9.126,0,0,1,584.623,75.926Zm-10.47,0a6.349,6.349,0,0,0,.738,3.4,2.638,2.638,0,0,0,2.4,1.151,2.6,2.6,0,0,0,2.377-1.144,6.444,6.444,0,0,0,.725-3.406,6.254,6.254,0,0,0-.731-3.372,3.109,3.109,0,0,0-4.781-.007A6.248,6.248,0,0,0,574.153,75.926Z" transform="translate(-549.383 -68.071)"/><path class="a" d="M614.965,83.524h-4.131V74.68a4.46,4.46,0,0,0-.548-2.458,1.931,1.931,0,0,0-1.728-.819,2.5,2.5,0,0,0-2.3,1.164,7.638,7.638,0,0,0-.718,3.833v7.124h-4.131V68.382h3.156l.555,1.937h.23a4.2,4.2,0,0,1,1.761-1.632,5.716,5.716,0,0,1,2.641-.589q3.4,0,4.6,2.221h.366a4.092,4.092,0,0,1,1.795-1.639,5.988,5.988,0,0,1,2.674-.582,5.28,5.28,0,0,1,3.894,1.32,5.8,5.8,0,0,1,1.321,4.232v9.874h-4.145V74.68a4.46,4.46,0,0,0-.548-2.458,1.931,1.931,0,0,0-1.728-.819,2.576,2.576,0,0,0-2.268,1.083,6.15,6.15,0,0,0-.752,3.44Z" transform="translate(-563.393 -68.071)"/><path class="a" d="M648.305,90.566a2.271,2.271,0,0,1,.61-1.72,2.473,2.473,0,0,1,1.774-.582,2.4,2.4,0,0,1,1.741.6,2.633,2.633,0,0,1-.007,3.393,2.36,2.36,0,0,1-1.734.616,2.427,2.427,0,0,1-1.761-.6A2.252,2.252,0,0,1,648.305,90.566Z" transform="translate(-584.274 -77.049)"/><path class="a" d="M671.274,83.5l-.8-2.059h-.108a6.088,6.088,0,0,1-2.148,1.821,6.919,6.919,0,0,1-2.878.508,4.654,4.654,0,0,1-3.434-1.246,4.787,4.787,0,0,1-1.252-3.548,4,4,0,0,1,1.686-3.556,9.776,9.776,0,0,1,5.086-1.267l2.627-.081v-.664a2.06,2.06,0,0,0-2.357-2.3,10.729,10.729,0,0,0-4.266,1.1l-1.368-2.79a12.307,12.307,0,0,1,5.8-1.368,7.225,7.225,0,0,1,4.673,1.327,4.907,4.907,0,0,1,1.625,4.036V83.5Zm-1.219-7.016-1.6.054a5.124,5.124,0,0,0-2.682.65,2.043,2.043,0,0,0-.88,1.815q0,1.747,2,1.747a3.173,3.173,0,0,0,2.3-.826,2.9,2.9,0,0,0,.86-2.194Z" transform="translate(-589.773 -68.049)"/><path class="a" d="M702.175,83.752l-.555-1.937H701.4a4.358,4.358,0,0,1-1.882,1.632,6.427,6.427,0,0,1-2.777.575,5.285,5.285,0,0,1-4.023-1.429,5.747,5.747,0,0,1-1.354-4.11V68.61H695.5v8.845a4.244,4.244,0,0,0,.583,2.458,2.117,2.117,0,0,0,1.855.819,2.79,2.79,0,0,0,2.506-1.158,7.179,7.179,0,0,0,.772-3.84V68.61h4.131V83.752Z" transform="translate(-603.446 -68.299)"/></g><path class="b" d="M414.648,56.747a2.271,2.271,0,0,1,.61-1.72,2.47,2.47,0,0,1,1.774-.583,2.4,2.4,0,0,1,1.741.6,2.633,2.633,0,0,1-.007,3.393,2.36,2.36,0,0,1-1.734.616,2.429,2.429,0,0,1-1.761-.6A2.254,2.254,0,0,1,414.648,56.747Z" transform="translate(971.691 -565.295)"/></g></svg>