<svg xmlns="http://www.w3.org/2000/svg" width="13.563" height="17" viewBox="0 0 13.563 17"><defs><style>.a{fill:#ce2029;}</style></defs><g transform="translate(-49.299 0)"><g transform="translate(49.299 0)"><path class="a" d="M55.839,0A6.784,6.784,0,0,0,49.422,8.07h0s.01.073.045.213a6.8,6.8,0,0,0,.457,1.345A19.642,19.642,0,0,0,55.7,16.864a.589.589,0,0,0,.753,0,19.622,19.622,0,0,0,5.783-7.24,6.509,6.509,0,0,0,.457-1.345c.031-.136.045-.213.045-.213h0A6.785,6.785,0,0,0,55.839,0Zm.24,10.15A3.294,3.294,0,1,1,59.373,6.86,3.293,3.293,0,0,1,56.079,10.154Z" transform="translate(-49.299 0)"/></g></g></svg>